<?xml version="1.0" encoding="UTF-8" standalone="no"?>
<!-- Square favicon variant of logo.svg: same artwork, viewBox extended to a
     552.449 square with the mark centered vertically. -->
<svg
   version="1.1"
   width="552.44904"
   height="552.44904"
   viewBox="0 -109.16658 552.44904 552.44904"
   xmlns="http://www.w3.org/2000/svg"><defs
     id="defs1"><mask
       id="tm-6"
       maskUnits="userSpaceOnUse"
       x="0"
       y="0"
       width="200"
       height="150"><rect
         width="200"
         height="150"
         fill="#ffffff"
         x="0"
         y="0" /><path
         d="m 87.51,73.67 8.73,-20.74 m 51.1,21.04 7.12,-21.34 m -98.02,32.7 7.12,21.34 m 53.97,-21.04 8.73,20.74"
         stroke="#000000"
         stroke-width="17"
         stroke-linecap="butt"
         fill="none" /></mask><mask
       id="wm0-8"
       maskUnits="userSpaceOnUse"
       x="0"
       y="0"
       width="200"
       height="150"><rect
         width="200"
         height="150"
         fill="#ffffff"
         x="0"
         y="0" /><path
         d="m 39.1,63.3 h 20"
         stroke="#000000"
         stroke-width="17"
         stroke-linecap="butt"
         fill="none" /></mask><mask
       id="wm1-1"
       maskUnits="userSpaceOnUse"
       x="0"
       y="0"
       width="200"
       height="150"><rect
         width="200"
         height="150"
         fill="#ffffff"
         x="0"
         y="0" /><path
         d="M 67.94,96 H 88.27"
         stroke="#000000"
         stroke-width="17"
         stroke-linecap="butt"
         fill="none" /></mask><mask
       id="wm2-2"
       maskUnits="userSpaceOnUse"
       x="0"
       y="0"
       width="200"
       height="150"><rect
         width="200"
         height="150"
         fill="#ffffff"
         x="0"
         y="0" /><path
         d="m 97.96,63.3 h 20.33"
         stroke="#000000"
         stroke-width="17"
         stroke-linecap="butt"
         fill="none" /></mask><mask
       id="wm3-8"
       maskUnits="userSpaceOnUse"
       x="0"
       y="0"
       width="200"
       height="150"><rect
         width="200"
         height="150"
         fill="#ffffff"
         x="0"
         y="0" /><path
         d="m 130,96 h 20"
         stroke="#000000"
         stroke-width="17"
         stroke-linecap="butt"
         fill="none" /></mask></defs><g
     id="layer1"
     transform="matrix(3.7795276,0,0,3.7795276,-120.62589,-204.23907)"><g
       id="g3"
       transform="matrix(3.308078,0,0,3.308078,-73.663691,-124.72451)"><g
         stroke="#e0a64e"
         stroke-width="11"
         stroke-linecap="round"
         mask="url(#tm-6)"
         id="g7"
         transform="matrix(0.26458333,0,0,0.26458333,27.549974,47.555964)"><path
           d="M 22,63.3 H 170" /><path
           d="M 30,96 H 178" /></g><g
         stroke="#ece4d6"
         stroke-width="11"
         stroke-linecap="round"
         id="g11"
         transform="matrix(0.26458333,0,0,0.26458333,27.549974,47.555964)"><path
           d="m 38,30 30,90"
           mask="url(#wm0-8)" /><path
           d="M 68,120 100,44"
           mask="url(#wm1-1)" /><path
           d="m 100,44 32,76"
           mask="url(#wm2-2)" /><path
           d="M 132,120 162,30"
           mask="url(#wm3-8)" /></g></g></g></svg>
